<svg xmlns="http://www.w3.org/2000/svg" width="15.877" height="15.431" viewBox="0 0 15.877 15.431"><defs><style>.a{fill:#002C5F !important;}</style></defs><path class="a" d="M12.719,9.254a.8.8,0,0,1,1.59,0v4.092a2.093,2.093,0,0,1-2.087,2.087H2.087A2.093,2.093,0,0,1,0,13.345V3.143A2.093,2.093,0,0,1,2.087,1.056H6.448a.8.8,0,0,1,0,1.59H2.087a.5.5,0,0,0-.5.5v10.2a.5.5,0,0,0,.5.5H12.222a.5.5,0,0,0,.5-.5Zm1-9.064,1.965,1.965a.648.648,0,0,1,0,.914l-.242.242L12.568.431l.242-.242a.648.648,0,0,1,.914,0m1.289,3.555-5.8,5.8-3.325.47.434-3.337L12.133.865l1.243,1.243L10.143,5.341l.434.434L13.81,2.542Z" transform="translate(0 -0.001)"/></svg>