<?xml version="1.0" encoding="utf-8"?>
<!-- Generator: Adobe Illustrator 16.0.0, SVG Export Plug-In . SVG Version: 6.00 Build 0)  -->
<!DOCTYPE svg PUBLIC "-//W3C//DTD SVG 1.1//EN" "http://www.w3.org/Graphics/SVG/1.1/DTD/svg11.dtd">
<svg version="1.1" id="Layer_1" xmlns="http://www.w3.org/2000/svg" xmlns:xlink="http://www.w3.org/1999/xlink" x="0px" y="0px"
	 width="458.15px" height="36.93px" viewBox="0 0 458.15 36.93" enable-background="new 0 0 458.15 36.93" xml:space="preserve">
<rect x="-17.293" y="-30.657" fill="none" width="507.575" height="200.979"/>
<path fill="#FFFFFF" d="M41.292,1.809C37.756,0.672,33.353,0,28.583,0c-4.771,0-9.173,0.672-12.71,1.809
	C6.464,4.833,0,11.115,0,18.374c0,10.211,12.796,18.491,28.583,18.491c15.783,0,28.58-8.28,28.58-18.491
	C57.163,11.115,50.699,4.836,41.292,1.809 M28.583,28.914c-2.355,0-4.279-4.631-4.393-10.452c1.417,0.127,2.886,0.196,4.393,0.196
	c1.506,0,2.974-0.068,4.393-0.196C32.861,24.283,30.938,28.914,28.583,28.914 M24.487,13.906c0.643-4.085,2.233-6.979,4.096-6.979
	c1.86,0,3.451,2.894,4.093,6.979c-1.309,0.118-2.679,0.184-4.093,0.184S25.798,14.024,24.487,13.906 M35.18,13.598
	c-0.956-6.412-3.548-11.009-6.597-11.009s-5.643,4.597-6.598,11.009c-5.806-0.907-9.865-2.969-9.865-5.373
	c0-3.238,7.371-5.863,16.462-5.863c9.091,0,16.461,2.625,16.461,5.863C45.044,10.628,40.985,12.691,35.18,13.598 M4.171,17.696
	c0-3.13,1.205-6.064,3.307-8.587C7.454,9.284,7.441,9.46,7.441,9.638c0,3.938,5.915,7.285,14.162,8.516
	c-0.007,0.297-0.012,0.596-0.012,0.896c0,7.322,2.031,13.524,4.839,15.662C13.956,33.949,4.171,26.624,4.171,17.696 M30.735,34.711
	c2.807-2.138,4.837-8.339,4.837-15.662c0-0.301-0.003-0.599-0.01-0.896c8.244-1.23,14.16-4.578,14.16-8.516
	c0-0.177-0.014-0.354-0.038-0.529c2.102,2.523,3.308,5.457,3.308,8.587C52.992,26.624,43.207,33.949,30.735,34.711 M87.647,10.274
	h-8.353V31.61H73.37l0.001-21.335h-8.353V5.27h22.629V10.274z M102.934,4.479c-7.709,0-13.96,6.25-13.96,13.958
	c0,7.709,6.251,13.961,13.96,13.961c7.708,0,13.957-6.251,13.957-13.961C116.891,10.73,110.642,4.479,102.934,4.479 M109.774,22.665
	c-0.905,2.309-2.969,4.036-5.468,4.478c-0.444,0.078-0.906,0.121-1.373,0.121s-0.931-0.043-1.374-0.121
	c-2.498-0.441-4.562-2.169-5.468-4.478c-0.513-1.306-0.799-2.734-0.799-4.228c0-1.491,0.286-2.917,0.799-4.226
	c0.905-2.305,2.97-4.033,5.468-4.473c0.443-0.081,0.907-0.124,1.374-0.124s0.929,0.043,1.373,0.124
	c2.499,0.44,4.562,2.168,5.468,4.473c0.515,1.309,0.798,2.735,0.798,4.226C110.572,19.93,110.289,21.358,109.774,22.665
	 M116.986,5.27h6.979l6.517,11.325l6.521-11.325h6.974l-10.531,16.594v9.745h-5.924v-9.745L116.986,5.27z M144.089,18.439
	c0-7.708,6.248-13.958,13.96-13.958c7.707,0,13.955,6.25,13.955,13.958c0,7.708-6.248,13.96-13.955,13.96
	C150.337,32.399,144.089,26.146,144.089,18.439 M158.049,27.265c0.466,0,0.927-0.045,1.371-0.122c2.502-0.44,4.562-2.17,5.468-4.476
	c0.516-1.309,0.798-2.734,0.798-4.228c0-1.491-0.282-2.917-0.798-4.227c-0.906-2.307-2.966-4.035-5.468-4.475
	c-0.444-0.078-0.905-0.122-1.371-0.122c-0.469,0-0.93,0.044-1.374,0.122c-2.5,0.44-4.565,2.168-5.469,4.475
	c-0.514,1.309-0.8,2.736-0.8,4.227c0,1.494,0.286,2.919,0.8,4.228c0.903,2.306,2.969,4.036,5.469,4.476
	C157.119,27.22,157.58,27.265,158.049,27.265 M214.147,25.794l-11.212,0.001l-2.159,5.793h-6.587l10.667-26.336h7.372l10.673,26.336
	h-6.588l-2.166-5.793V25.794z M212.425,21.184l-3.88-10.402l-3.886,10.402H212.425z M195.928,10.274h-8.354l0.002,21.335h-5.925
	l0.001-21.335h-8.354V5.27h22.63V10.274z M450.439,16.259h-17.195c-0.201-4.324,4.45-4.151,4.45-4.151h18.536V8.401h-18.834
	c-12.902,1.187-12.458,11.568-12.458,11.568h21.942c3.266,0,2.969,2.073,2.969,2.073c0,2.658-2.379,2.391-2.379,2.391h-24.905V8.401
	h-7.114v16.032H402.41c-4.557-0.017-4.557-2.391-4.557-2.391V8.401h-10.878l-11.271,6.813l-10.076-6.813H340.71
	c-12.853,0.785-13.777,10.382-13.777,10.382h4.587c-2.072,0.875-4.587,5.65-4.587,5.65H311.36c-4.751,0.13-4.604-4.179-4.604-4.179
	V8.401h-7.271v10.382c-0.137,10.078,9.498,9.188,9.498,9.188h53.98l10.373-6.222l8.75,6.222h10.827l-14.04-10.677l11.512-6.818
	v11.566c1.191,5.325,8.453,5.929,8.453,5.929h52.793c6.52,0,6.52-5.929,6.52-5.929C458.15,16.488,450.439,16.259,450.439,16.259z
	 M361.668,24.434h-26.097c0.587-4.352,4.944-4.369,4.944-4.369h15.521v-3.957h-20.466c0.993-4.173,5.139-3.758,5.139-3.758h17.208
	v-1.575l12.053,8.297L361.668,24.434z M286.531,22.828c0.799-1.285,1.002-2.552,1.002-4.144c0-6.551-3.664-12.497-11.633-15.202
	l0.975-1.653c8.803,3.034,13.998,9.544,13.998,16.863c0,3.609-1.343,6.958-3.725,9.789H260.15
	c-10.774-0.354-6.232-7.165-6.232-7.165s0.52-1.286,4.743-7.154c4.151-5.73,7.271-9.549,7.271-9.549
	c1.567-1.73,1.559-2.369,1.195-2.594c-0.53-0.026-1.07-0.06-1.641-0.051c-13.225,0.013-21.755,7.814-21.755,16.725
	c0,8.926,7.396,16.141,21.755,16.141c6.66,0,12.191-1.908,16.018-4.979h4.351c-4.444,4.314-11.563,7.076-20.368,7.076
	c-16.75,0.018-25.414-8.561-25.367-18.237C240.168,8.617,250.045-0.009,265.483,0c2.95,0,5.709,0.319,8.233,0.906
	c1.394,0.492,1.216,1.441,0.807,2.162c-0.307,0.531-0.738,0.937-0.738,0.937l-10.676,15.422c-3.649,4.265,0,4.463,0,4.463h22.041
	c0,0,0.514-0.034,0.795-0.164C286.226,23.596,286.531,22.828,286.531,22.828z"/>
</svg>
