<svg xmlns="http://www.w3.org/2000/svg" width="111.733" height="23.241" viewBox="0 0 111.733 23.241"><defs><style>.a{fill:#fff;}</style></defs><path class="a" d="M57.949,15.326V2.4H55.705c-.855,0-1.175.427-1.709,1.175L50.471,8.6,46.518,2.4H44.061c-.855,0-.961.748-.961,1.175V15.326h2.777V6.78l3.846,5.769H50.9l3.953-5.662v8.546h3.1Z" transform="translate(2.942 0.164)"/><path class="a" d="M63.6,9.237v-4.7h1.068c2.03,0,2.35,1.282,2.35,2.03,0,2.457-2.777,2.671-3.312,2.671Zm.107,2.137a7.694,7.694,0,0,0,3.418-.748,4.551,4.551,0,0,0,2.777-4.38c0-1.175-.427-3.846-4.487-3.846H61.255c-.748,0-.855.748-.855,1.175V15.326h3.2V11.373Z" transform="translate(4.123 0.164)"/><path class="a" d="M41.424,2.4H38.967c-.855,0-.961.748-.961,1.175v7.157c0,2.35-1.282,2.884-2.243,2.884-1.068,0-2.243-.534-2.243-2.884V2.4H31.061c-.855,0-.961.748-.961,1.175v7.478c0,2.35.961,5.128,5.662,5.128s5.662-2.777,5.662-5.128Z" transform="translate(2.055 0.164)"/><path class="a" d="M24.4,15.326h3.525V2.4H25.361c-.855,0-.961.748-.961,1.175Z" transform="translate(1.666 0.164)"/><g transform="translate(13.343 2.73)"><path class="a" d="M3.232,6.73H3.018V2.137H4.194c2.137,0,2.564,1.282,2.564,2.03,0,2.457-2.884,2.564-3.525,2.564Zm71.787,5.982V0H72.455c-.748,0-.855.748-.855,1.175V3.312h-.107A16.287,16.287,0,0,0,66.58,5.128l-.107.107V0H63.909c-.855,0-.961.748-.961,1.175v6.3h0c-.534.427-1.068.748-1.5,1.068l-.107.107C52.372,15.6,43.4,18.695,32.289,18.695h-.32a42.6,42.6,0,0,1-14.208-2.35,21.684,21.684,0,0,1-10.9-8.119H6.757a4.446,4.446,0,0,0,2.991-4.38C9.748,2.671,9.321,0,5.048,0H.561C-.293,0-.4.748-.4,1.175V12.712H3.125V8.76h.32C8.039,14.1,16.692,20.511,32.182,20.511c11.537,0,21.045-3.2,30.552-10.255l.107-.107v2.457h3.525V7.8h0a12.132,12.132,0,0,1,5.021-2.03h.107v7.051h3.525Z" transform="translate(0.4)"/></g><path class="a" d="M12.178,2.4H.961C.214,2.4,0,3.041,0,3.575V5.5H4.273v9.828H7.905V5.5h3.312c.855,0,.961-.748.961-1.175Z" transform="translate(0 0.164)"/><g transform="translate(92.291)"><path class="a" d="M13.567,2.564l-7.691,14.1c-.32.534-.641.748-1.068.748s-.748-.214-1.068-.748l-7.585-14.1a1.547,1.547,0,0,1-.107-1.175c.107-.32.214-.534.534-.641A.8.8,0,0,1-2.884.641H12.5a.8.8,0,0,1,.534.107,1.094,1.094,0,0,1,.641.534,1.375,1.375,0,0,1-.107,1.282M14.422,1.5c0-.214,0-.32-.107-.427a2.235,2.235,0,0,0-.427-.641c-.214-.107-.32-.32-.641-.32h0A.468.468,0,0,0,12.926,0H-3.2a.808.808,0,0,0-.427.107h0l-.641.32-.32.641c0,.107-.107.32-.107.427v.427a.642.642,0,0,0,.107.427.81.81,0,0,0,.214.427h0l7.691,14.1a1.475,1.475,0,0,0,.32.427l.214.214.214.214a.81.81,0,0,0,.427.214,4.627,4.627,0,0,0,.534.107.963.963,0,0,0,.534-.107.555.555,0,0,0,.427-.214c.107,0,.107-.107.214-.214l.214-.214c.107-.107.214-.32.32-.427l7.691-14.1h0c.107-.107.107-.32.214-.427,0-.107.107-.32.107-.427-.32-.107-.32-.214-.32-.427" transform="translate(4.7)"/></g><path class="a" d="M97.961,6.616l1.816,1.068.32-.641L97.961,5.868h2.777L101.38,4.8H97v7.8l.961-1.709Z" transform="translate(6.621 0.328)"/><path class="a" d="M93.018,6.616,91.2,7.684l-.32-.641,2.137-1.175H90.241L89.6,4.8h4.38v7.8l-.961-1.709Z" transform="translate(6.116 0.328)"/></svg>